<svg xmlns="http://www.w3.org/2000/svg" version="1.1" xmlns:xlink="http://www.w3.org/1999/xlink" xmlns:svgjs="http://svgjs.dev/svgjs" width="1440" height="560" preserveAspectRatio="none" viewBox="0 0 1440 560"><g mask="url(&quot;#SvgjsMask1121&quot;)" fill="none"><path d="M -361.4848034126147,538 C -289.48,482.2 -145.48,309 -1.4848034126147258,259 C 142.52,209 214.52,320.2 358.5151965873853,288 C 502.52,255.8 574.52,49.4 718.5151965873853,98 C 862.52,146.6 934.52,514.2 1078.5151965873852,531 C 1222.52,547.8 1366.22,200.6 1438.5151965873852,182 C 1510.81,163.4 1439.7,386.8 1440,438" stroke="rgba(255, 255, 255, 0.33)" stroke-width="2"></path><path d="M -654.3341556856228,553 C -582.33,481.2 -438.33,237.8 -294.3341556856229,194 C -150.33,150.2 -78.33,330.4 65.66584431437713,334 C 209.67,337.6 281.67,188.8 425.6658443143771,212 C 569.67,235.2 641.67,479.4 785.6658443143772,450 C 929.67,420.6 1014.8,67.6 1145.6658443143772,65 C 1276.53,62.4 1381.13,362.6 1440,437" stroke="rgba(255, 255, 255, 0.33)" stroke-width="2"></path><path d="M -86.98803899639279,557 C -14.99,464.2 129.01,98 273.0119610036072,93 C 417.01,88 489.01,495.4 633.0119610036072,532 C 777.01,568.6 849.01,271.8 993.0119610036072,276 C 1137.01,280.2 1209.01,589.4 1353.0119610036072,553 C 1497.01,516.6 1695.61,133.6 1713.0119610036072,94 C 1730.41,54.4 1494.6,302.8 1440,355" stroke="rgba(255, 255, 255, 0.33)" stroke-width="2"></path><path d="M -484.8646750683722,451 C -412.86,374 -268.86,86.4 -124.86467506837222,66 C 19.14,45.6 91.14,350.6 235.1353249316278,349 C 379.14,347.4 451.14,20 595.1353249316278,58 C 739.14,96 811.14,541.4 955.1353249316278,539 C 1099.14,536.6 1218.16,63.2 1315.1353249316278,46 C 1412.11,28.8 1415.03,371.6 1440,453" stroke="rgba(255, 255, 255, 0.33)" stroke-width="2"></path></g><defs><mask id="SvgjsMask1121"><rect width="1440" height="560" fill="#ffffff"></rect></mask></defs></svg>